<?xml version="1.0" encoding="utf-8"?>
<!-- Generator: Adobe Illustrator 24.0.2, SVG Export Plug-In . SVG Version: 6.00 Build 0)  -->
<svg version="1.1" id="Layer_1" xmlns="http://www.w3.org/2000/svg" xmlns:xlink="http://www.w3.org/1999/xlink" x="0px" y="0px"
	 viewBox="0 0 495.41 130.79" style="enable-background:new 0 0 495.41 130.79;" xml:space="preserve">
<style type="text/css">
	.st0{fill:#004996;}
	.st1{fill-rule:evenodd;clip-rule:evenodd;fill:#FFFFFF;}
	.st2{fill-rule:evenodd;clip-rule:evenodd;fill:#465055;}
	.st3{fill-rule:evenodd;clip-rule:evenodd;fill:#004996;}
</style>
<g>
	<path class="st1" d="M95.81,59.45c1.31-19.75-9.85-31.38-33.33-31.38c-21.45,0-40.94,15.48-45.15,40.35
		c-4.23,24.98,8.51,40.56,33.91,40.56c20.28,0,36.5-11.95,42.1-31.81H69.12C66.91,84.53,62.11,90.19,54,90.19
		c-12.81,0-13.44-10.14-11.62-20.92c2.51-14.84,9.13-22.41,17.99-22.41c7.9,0,12.14,4.59,11.53,12.6H95.81z"/>
	<path class="st1" d="M139.97,47.75c11.15-0.32,13.55,10.78,11.77,21.24c-2.15,12.7-8.01,22.09-18.9,22.09
		c-12.06,0-12.97-12.27-11.31-22.09C123.18,59.28,128.55,47.75,139.97,47.75z M143.36,28.97c-23.91,0-42.89,15.69-46.98,39.81
		c-4.43,26.15,9.16,41.09,33.28,41.09c22.73,0,42.84-14.73,47.26-40.88C180.37,48.71,170.79,28.97,143.36,28.97z"/>
	<g>
		<polygon class="st1" points="209.92,30.1 186.34,30.1 173.33,106.95 197.45,106.95 201.57,82.61 203.57,65.11 223.92,106.95 
			247.51,106.95 260.52,30.1 236.39,30.1 232.26,54.54 230.26,72.04 		"/>
		<polygon class="st1" points="251.12,79.91 278.65,79.91 281.69,61.98 254.15,61.98 256.52,48 291.1,48 294.13,30.07 259.95,30.07 
					"/>
	</g>
	<g>
		<polygon class="st1" points="310.49,107.52 323.5,30.67 298.31,30.67 285.3,107.52 		"/>
		<path class="st1" d="M366.31,81.37H350.4l12.45-27.54L366.31,81.37z M338.29,107.52l4.6-10.14h25.08l1.27,10.14h25.08L379.8,30.67
			h-25.62l-40.54,76.85H338.29z"/>
	</g>
	<g>
		<path class="st1" d="M426.09,43.13c5.7-4.47,12.1-8.36,18.39-11.24h-40.52v49.14C404.51,68.29,412.4,53.88,426.09,43.13z"/>
		<path class="st1" d="M408.72,98.08c-2.96-4.07-4.5-8.88-4.76-14.06v23.78h21.88C418.79,106.85,412.75,103.63,408.72,98.08z"/>
		<path class="st1" d="M444.69,31.89l14.54,18.41c-6.05,0.47-12.84,2.15-18.58,6.65c-7.6,5.96-10.66,15.15-6.71,20.59
			c4.01,5.51,13.67,4.61,21.27-1.35c5.83-4.58,9.16-10.01,11.16-16.06l12.87,19.32c-3.06,4.59-12.07,12.6-16.61,16.16
			c-8.93,7-18.59,11.08-27.48,12.18h44.71v-75.9H444.69z"/>
	</g>
</g>
</svg>
